<svg width="28" height="28" viewBox="0 0 28 28" fill="none" xmlns="http://www.w3.org/2000/svg">
<circle cx="14" cy="14" r="14" fill="#3A3D40"/>
<path d="M18.0909 8H17.18C17.0671 7.70746 16.858 7.45421 16.5816 7.27512C16.3051 7.09603 15.9749 6.99991 15.6364 7H12.3636C12.0251 6.99991 11.6949 7.09603 11.4184 7.27512C11.142 7.45421 10.9329 7.70746 10.82 8H9.90909C9.40277 8 8.91718 8.18437 8.55916 8.51256C8.20114 8.84075 8 9.28587 8 9.75V19.25C8 19.7141 8.20114 20.1593 8.55916 20.4874C8.91718 20.8156 9.40277 21 9.90909 21H18.0909C18.5972 21 19.0828 20.8156 19.4408 20.4874C19.7989 20.1593 20 19.7141 20 19.25V9.75C20 9.28587 19.7989 8.84075 19.4408 8.51256C19.0828 8.18437 18.5972 8 18.0909 8ZM12.3636 8H15.6364C15.781 8 15.9198 8.05268 16.0221 8.14645C16.1244 8.24022 16.1818 8.36739 16.1818 8.5C16.1818 8.63261 16.1244 8.75979 16.0221 8.85355C15.9198 8.94732 15.781 9 15.6364 9H12.3636C12.219 9 12.0802 8.94732 11.9779 8.85355C11.8756 8.75979 11.8182 8.63261 11.8182 8.5C11.8182 8.36739 11.8756 8.24022 11.9779 8.14645C12.0802 8.05268 12.219 8 12.3636 8ZM11 12C11.217 12 11.4251 12.079 11.5785 12.2197C11.732 12.3603 11.8182 12.5511 11.8182 12.75V17.25C11.8182 17.4489 11.732 17.6397 11.5785 17.7803C11.4251 17.921 11.217 18 11 18C10.783 18 10.5749 17.921 10.4215 17.7803C10.268 17.6397 10.1818 17.4489 10.1818 17.25V12.75C10.1818 12.5511 10.268 12.3603 10.4215 12.2197C10.5749 12.079 10.783 12 11 12ZM13.1818 13.75C13.1818 13.5511 13.268 13.3603 13.4215 13.2197C13.5749 13.079 13.783 13 14 13C14.217 13 14.4251 13.079 14.5785 13.2197C14.732 13.3603 14.8182 13.5511 14.8182 13.75V17.25C14.8182 17.4489 14.732 17.6397 14.5785 17.7803C14.4251 17.921 14.217 18 14 18C13.783 18 13.5749 17.921 13.4215 17.7803C13.268 17.6397 13.1818 17.4489 13.1818 17.25V13.75ZM17 15C17.217 15 17.4251 15.079 17.5785 15.2197C17.732 15.3603 17.8182 15.5511 17.8182 15.75V17.25C17.8182 17.4489 17.732 17.6397 17.5785 17.7803C17.4251 17.921 17.217 18 17 18C16.783 18 16.5749 17.921 16.4215 17.7803C16.268 17.6397 16.1818 17.4489 16.1818 17.25V15.75C16.1818 15.5511 16.268 15.3603 16.4215 15.2197C16.5749 15.079 16.783 15 17 15Z" fill="white"/>
</svg>
