<svg width="28" height="28" viewBox="0 0 28 28" fill="none" xmlns="http://www.w3.org/2000/svg">
<circle cx="14" cy="14" r="14" fill="#3A3D40"/>
<g clip-path="url(#clip0_1105_864)">
<path d="M15.7498 10.7917C15.4278 10.7917 15.1665 10.5304 15.1665 10.2084V9.33335H12.8332V10.2084C12.8332 10.5304 12.5718 10.7917 12.2498 10.7917C11.9278 10.7917 11.6665 10.5304 11.6665 10.2084V9.33335C11.6665 8.68994 12.1898 8.16669 12.8332 8.16669H15.1665C15.8099 8.16669 16.3332 8.68994 16.3332 9.33335V10.2084C16.3332 10.5304 16.0718 10.7917 15.7498 10.7917Z" fill="white"/>
<path d="M14.4142 15.9717C14.3092 16.0125 14.1575 16.0417 14 16.0417C13.8425 16.0417 13.6908 16.0125 13.5508 15.96L7 13.7783V18.2292C7 19.1158 7.7175 19.8333 8.60417 19.8333H19.3958C20.2825 19.8333 21 19.1158 21 18.2292V13.7783L14.4142 15.9717Z" fill="white"/>
<path d="M21 11.5209V12.8567L14.14 15.1434C14.0933 15.1609 14.0467 15.1667 14 15.1667C13.9533 15.1667 13.9067 15.1609 13.86 15.1434L7 12.8567V11.5209C7 10.6342 7.7175 9.91669 8.60417 9.91669H19.3958C20.2825 9.91669 21 10.6342 21 11.5209Z" fill="white"/>
</g>
<defs>
<clipPath id="clip0_1105_864">
<rect width="14" height="14" fill="white" transform="translate(7 7)"/>
</clipPath>
</defs>
</svg>
