<svg width="21" height="22" viewBox="0 0 21 22" fill="none" xmlns="http://www.w3.org/2000/svg">
<g clip-path="url(#clip0_1105_915)">
<path d="M10.5 0.5C13.2848 0.5 15.9555 1.60625 17.9246 3.57538C19.8938 5.54451 21 8.21523 21 11C21 13.7848 19.8938 16.4555 17.9246 18.4246C15.9555 20.3938 13.2848 21.5 10.5 21.5C7.71523 21.5 5.04451 20.3938 3.07538 18.4246C1.10625 16.4555 0 13.7848 0 11C0 8.21523 1.10625 5.54451 3.07538 3.57538C5.04451 1.60625 7.71523 0.5 10.5 0.5V0.5ZM5.90625 10.3438C5.7322 10.3438 5.56528 10.4129 5.44221 10.536C5.31914 10.659 5.25 10.826 5.25 11C5.25 11.174 5.31914 11.341 5.44221 11.464C5.56528 11.5871 5.7322 11.6562 5.90625 11.6562H13.5096L10.6916 14.4729C10.6306 14.5339 10.5822 14.6063 10.5492 14.686C10.5162 14.7658 10.4992 14.8512 10.4992 14.9375C10.4992 15.0238 10.5162 15.1092 10.5492 15.189C10.5822 15.2687 10.6306 15.3411 10.6916 15.4021C10.7526 15.4631 10.8251 15.5115 10.9048 15.5446C10.9845 15.5776 11.07 15.5946 11.1562 15.5946C11.2425 15.5946 11.328 15.5776 11.4077 15.5446C11.4874 15.5115 11.5599 15.4631 11.6209 15.4021L15.5584 11.4646C15.6195 11.4037 15.668 11.3312 15.7011 11.2515C15.7341 11.1718 15.7512 11.0863 15.7512 11C15.7512 10.9137 15.7341 10.8282 15.7011 10.7485C15.668 10.6688 15.6195 10.5963 15.5584 10.5354L11.6209 6.59787C11.5599 6.53686 11.4874 6.48846 11.4077 6.45544C11.328 6.42242 11.2425 6.40542 11.1562 6.40542C11.07 6.40542 10.9845 6.42242 10.9048 6.45544C10.8251 6.48846 10.7526 6.53686 10.6916 6.59787C10.6306 6.65889 10.5822 6.73133 10.5492 6.81105C10.5162 6.89077 10.4992 6.97621 10.4992 7.0625C10.4992 7.14879 10.5162 7.23423 10.5492 7.31395C10.5822 7.39367 10.6306 7.46611 10.6916 7.52713L13.5096 10.3438H5.90625Z" fill="#333333"/>
</g>
<defs>
<clipPath id="clip0_1105_915">
<rect width="21" height="21" fill="white" transform="translate(0 0.5)"/>
</clipPath>
</defs>
</svg>
