<svg width="28" height="28" viewBox="0 0 28 28" fill="none" xmlns="http://www.w3.org/2000/svg">
<g clip-path="url(#clip0_1105_989)">
<path d="M14 28C10.287 28 6.72601 26.525 4.1005 23.8995C1.47499 21.274 -8.99315e-07 17.713 -1.22392e-06 14C-1.54852e-06 10.287 1.47499 6.72602 4.1005 4.10051C6.72601 1.475 10.287 1.54852e-06 14 1.22392e-06C17.713 8.99315e-07 21.274 1.475 23.8995 4.1005C26.525 6.72601 28 10.287 28 14C28 17.713 26.525 21.274 23.8995 23.8995C21.274 26.525 17.713 28 14 28V28ZM20.125 14.875C20.3571 14.875 20.5796 14.7828 20.7437 14.6187C20.9078 14.4546 21 14.2321 21 14C21 13.7679 20.9078 13.5454 20.7437 13.3813C20.5796 13.2172 20.3571 13.125 20.125 13.125L9.98725 13.125L13.7445 9.3695C13.8259 9.28815 13.8904 9.19157 13.9344 9.08527C13.9784 8.97898 14.0011 8.86505 14.0011 8.75C14.0011 8.63495 13.9784 8.52102 13.9344 8.41473C13.8904 8.30844 13.8259 8.21185 13.7445 8.1305C13.6631 8.04915 13.5666 7.98461 13.4603 7.94059C13.354 7.89656 13.2401 7.8739 13.125 7.8739C13.0099 7.8739 12.896 7.89656 12.7897 7.94059C12.6834 7.98461 12.5869 8.04915 12.5055 8.1305L7.2555 13.3805C7.17401 13.4618 7.10936 13.5583 7.06525 13.6646C7.02114 13.7709 6.99843 13.8849 6.99843 14C6.99843 14.1151 7.02114 14.2291 7.06525 14.3354C7.10936 14.4417 7.17401 14.5382 7.2555 14.6195L12.5055 19.8695C12.5869 19.9509 12.6834 20.0154 12.7897 20.0594C12.896 20.1034 13.0099 20.1261 13.125 20.1261C13.2401 20.1261 13.354 20.1034 13.4603 20.0594C13.5666 20.0154 13.6631 19.9509 13.7445 19.8695C13.8259 19.7881 13.8904 19.6916 13.9344 19.5853C13.9784 19.479 14.0011 19.3651 14.0011 19.25C14.0011 19.1349 13.9784 19.021 13.9344 18.9147C13.8904 18.8084 13.8259 18.7119 13.7445 18.6305L9.98725 14.875L20.125 14.875Z" fill="#333333"/>
</g>
<defs>
<clipPath id="clip0_1105_989">
<rect width="28" height="28" fill="white" transform="translate(28 28) rotate(180)"/>
</clipPath>
</defs>
</svg>
