<svg width="24" height="24" viewBox="0 0 24 24" fill="none" xmlns="http://www.w3.org/2000/svg">
<g clip-path="url(#clip0_1103_854)">
<path d="M8.71771 0H1.82723C0.819633 0 0 0.819633 0 1.82723V8.71771C0 9.7253 0.819633 10.5449 1.82723 10.5449H8.71771C9.7253 10.5449 10.5449 9.7253 10.5449 8.71771V1.82723C10.5448 0.819633 9.7253 0 8.71771 0Z" fill="#333333"/>
<path d="M22.1728 0H15.2823C14.2747 0 13.4551 0.819633 13.4551 1.82723V8.71771C13.4551 9.7253 14.2747 10.5449 15.2823 10.5449H22.1728C23.1804 10.5449 24 9.7253 24 8.71771V1.82723C24 0.819633 23.1804 0 22.1728 0Z" fill="#333333"/>
<path d="M8.71771 13.4551H1.82723C0.819634 13.4551 0 14.2746 0 15.2822V22.1727C0 23.1803 0.819634 23.9999 1.82723 23.9999H8.71771C9.7253 23.9999 10.5449 23.1803 10.5449 22.1727V15.2822C10.5448 14.2746 9.7253 13.4551 8.71771 13.4551Z" fill="#333333"/>
<path d="M22.1728 13.4551H15.2823C14.2747 13.4551 13.4551 14.2747 13.4551 15.2823V22.1728C13.4551 23.1804 14.2747 24 15.2823 24H22.1728C23.1804 23.9999 24 23.1803 24 22.1727V15.2822C24 14.2746 23.1804 13.4551 22.1728 13.4551Z" fill="#333333"/>
</g>
<defs>
<clipPath id="clip0_1103_854">
<rect width="24" height="24" fill="white"/>
</clipPath>
</defs>
</svg>
